<?xml version="1.0" encoding="utf-8"?>
<!-- Generator: Adobe Illustrator 17.1.0, SVG Export Plug-In . SVG Version: 6.00 Build 0)  -->
<!DOCTYPE svg PUBLIC "-//W3C//DTD SVG 1.1//EN" "http://www.w3.org/Graphics/SVG/1.1/DTD/svg11.dtd">
<svg version="1.1" id="Layer_1" xmlns="http://www.w3.org/2000/svg" xmlns:xlink="http://www.w3.org/1999/xlink" x="0px" y="0px"
	 viewBox="0 -218 612 427" enable-background="new 0 -218 612 427" xml:space="preserve">
<rect x="17.3" y="-204.2" fill="none" width="86.4" height="23"/>
<text transform="matrix(0.98 0 0 1 17.3213 -184.6328)" font-family="'SourceSansPro-SemiboldIt'" font-size="27.7132">&lt;article&gt;</text>
<text transform="matrix(0.98 0 0 1 17.3208 199.5703)" font-family="'SourceSansPro-SemiboldIt'" font-size="27.7132">&lt;/article&gt;</text>
<rect x="17.3" y="-174.3" fill="none" stroke="#000000" stroke-width="2.8346" stroke-miterlimit="10" width="577.4" height="343.5"/>
<rect x="34.6" y="-174.3" fill="none" stroke="#000000" stroke-width="2.8346" stroke-miterlimit="10" width="542.7" height="69.1"/>
<rect x="34.6" y="-87.9" fill="none" stroke="#000000" stroke-width="2.8346" stroke-miterlimit="10" width="542.7" height="69.1"/>
<rect x="34.6" y="-1.5" fill="none" stroke="#000000" stroke-width="2.8346" stroke-miterlimit="10" width="542.7" height="69.1"/>
<rect x="40.4" y="-168.5" fill="none" width="499.8" height="28.8"/>
<text transform="matrix(1 0 0 1 40.4146 -148.9141)" font-family="'SourceSansPro-SemiboldIt'" font-size="27.7132">&lt;section </text>
<text transform="matrix(1 0 0 1 142.6146 -148.9141)" font-family="'SourceSansPro-It'" font-size="27.7132">class=&quot;main&quot;</text>
<text transform="matrix(1 0 0 1 292.7146 -148.9141)" font-family="'SourceSansPro-SemiboldIt'" font-size="27.7132">&gt; </text>
<text transform="matrix(1 0 0 1 311.8146 -148.9141)" font-family="'SourceSansPro-Regular'" font-size="23.0943">content</text>
<rect x="40.4" y="-82.1" fill="none" width="499.8" height="28.8"/>
<text transform="matrix(1 0 0 1 40.4146 -62.5641)" font-family="'SourceSansPro-SemiboldIt'" font-size="27.7132">&lt;nav </text>
<text transform="matrix(1 0 0 1 102.6146 -62.5641)" font-family="'SourceSansPro-It'" font-size="27.7132">class=&quot;subpages top&quot;</text>
<text transform="matrix(1 0 0 1 347.5146 -62.5641)" font-family="'SourceSansPro-SemiboldIt'" font-size="27.7132">&gt; </text>
<text transform="matrix(1 0 0 1 366.6146 -62.5641)" font-family="'SourceSansPro-Regular'" font-size="23.0943">sibiling navigation</text>
<rect x="40.4" y="4.3" fill="none" width="499.8" height="23.1"/>
<text transform="matrix(1 0 0 1 40.4146 23.7856)" font-family="'SourceSansPro-SemiboldIt'" font-size="27.7132">&lt;section </text>
<text transform="matrix(1 0 0 1 142.6146 23.7856)" font-family="'SourceSansPro-It'" font-size="27.7132">class=&quot;media&quot;</text>
<text transform="matrix(1 0 0 1 306.3146 23.7856)" font-family="'SourceSansPro-SemiboldIt'" font-size="27.7132">&gt; </text>
<text transform="matrix(1 0 0 1 325.4146 23.7856)" font-family="'SourceSansPro-Regular'" font-size="23.0943">media &amp; attachments</text>
<rect x="40.4" y="45.7" fill="none" width="531.4" height="23.1"/>
<text transform="matrix(1 0 0 1 40.4146 62.5544)" font-family="'SourceSansPro-It'" font-size="27.7132">&lt;/article&gt;</text>
<rect x="40.4" y="-47.7" fill="none" width="499.8" height="23.1"/>
<text transform="matrix(1 0 0 1 40.4146 -28.0099)" font-family="'SourceSansPro-It'" font-size="27.7132">&lt;/nav&gt;</text>
<rect x="34.6" y="83.8" fill="none" stroke="#000000" stroke-width="2.8346" stroke-miterlimit="10" width="542.7" height="69.1"/>
<text transform="matrix(1 0 0 1 40.4146 109.131)" font-family="'SourceSansPro-SemiboldIt'" font-size="27.7132">&lt;nav </text>
<text transform="matrix(1 0 0 1 102.6146 109.131)" font-family="'SourceSansPro-It'" font-size="27.7132">class=&quot;subpages bottom&quot;</text>
<text transform="matrix(1 0 0 1 393.0146 109.131)" font-family="'SourceSansPro-SemiboldIt'" font-size="27.7132">&gt; </text>
<text transform="matrix(1 0 0 1 412.1146 109.131)" font-family="'SourceSansPro-Regular'" font-size="23.0943">sibiling nav.</text>
<text transform="matrix(1 0 0 1 40.4146 143.6852)" font-family="'SourceSansPro-It'" font-size="27.7132">&lt;/nav&gt;</text>
<rect x="40.4" y="-134.1" fill="none" width="499.8" height="23.1"/>
<text transform="matrix(1 0 0 1 40.4146 -114.36)" font-family="'SourceSansPro-It'" font-size="27.7132">&lt;/section&gt;</text>
<rect x="40.4" y="140.4" fill="none" width="529" height="28.3"/>
</svg>
