<?xml version="1.0" encoding="utf-8"?>
<!-- Generator: Adobe Illustrator 17.1.0, SVG Export Plug-In . SVG Version: 6.00 Build 0)  -->
<!DOCTYPE svg PUBLIC "-//W3C//DTD SVG 1.1//EN" "http://www.w3.org/Graphics/SVG/1.1/DTD/svg11.dtd">
<svg version="1.1" id="Layer_1" xmlns="http://www.w3.org/2000/svg" xmlns:xlink="http://www.w3.org/1999/xlink" x="0px" y="0px"
	 viewBox="0 -210 612 419" enable-background="new 0 -210 612 419" xml:space="preserve">
<rect x="17.3" y="-205.1" fill="none" width="86.4" height="23"/>
<text transform="matrix(0.98 0 0 1 17.3213 -185.6067)" font-family="'SourceSansPro-SemiboldIt'" font-size="27.7132">&lt;body&gt;</text>
<rect x="17.3" y="181" fill="none" width="124" height="23"/>
<text transform="matrix(0.98 0 0 1 17.3208 200.5442)" font-family="'SourceSansPro-SemiboldIt'" font-size="27.7132">&lt;/body&gt;</text>
<rect x="17.3" y="-175.2" fill="none" stroke="#000000" stroke-width="2.8346" stroke-miterlimit="10" width="577.4" height="349.3"/>
<rect x="34.6" y="-175.2" fill="none" stroke="#000000" stroke-width="2.8346" stroke-miterlimit="10" width="542.7" height="69.1"/>
<rect x="34.6" y="-88.8" fill="none" stroke="#000000" stroke-width="2.8346" stroke-miterlimit="10" width="542.7" height="69.1"/>
<rect x="34.6" y="132.5" fill="none" stroke="#000000" stroke-width="2.8346" stroke-miterlimit="10" width="542.7" height="41.6"/>
<rect x="40.4" y="-169.4" fill="none" width="499.8" height="28.8"/>
<text transform="matrix(1 0 0 1 40.4146 -149.8879)" font-family="'SourceSansPro-SemiboldIt'" font-size="27.7132">&lt;header&gt; </text>
<text transform="matrix(1 0 0 1 155.0781 -149.8879)" font-family="'SourceSansPro-Regular'" font-size="23.0943">Name profession. tagline      e@mail</text>
<rect x="40.4" y="-83.1" fill="none" width="499.8" height="28.8"/>
<text transform="matrix(1 0 0 1 40.4146 -63.5379)" font-family="'SourceSansPro-SemiboldIt'" font-size="27.7132">&lt;nav&gt; </text>
<text transform="matrix(1 0 0 1 116.395 -63.5379)" font-family="'SourceSansPro-Regular'" font-size="23.0943">List of numberes Pages and Projects </text>
<rect x="34.6" y="-2.5" fill="none" stroke="#000000" stroke-width="2.8346" stroke-miterlimit="10" width="542.7" height="117.7"/>
<rect x="40.4" y="3.3" fill="none" width="499.8" height="23.1"/>
<text transform="matrix(1 0 0 1 40.4146 22.8118)" font-family="'SourceSansPro-SemiboldIt'" font-size="27.7132">&lt;article&gt;</text>
<rect x="40.4" y="44.8" fill="none" width="531.4" height="23.1"/>
<text transform="matrix(1 0 0 1 40.4146 61.2073)" font-family="'SourceSansPro-Regular'" font-size="23.0943">page/project content and attachments (see “Article”)</text>
<rect x="40.4" y="86.3" fill="none" width="499.8" height="23.1"/>
<text transform="matrix(1 0 0 1 40.4146 106.0119)" font-family="'SourceSansPro-It'" font-size="27.7132">&lt;/article&gt;</text>
<rect x="40.4" y="-48.7" fill="none" width="499.8" height="23.1"/>
<text transform="matrix(1 0 0 1 40.4146 -28.9836)" font-family="'SourceSansPro-It'" font-size="27.7132">&lt;/nav&gt;</text>
<rect x="40.4" y="-135" fill="none" width="499.8" height="23.1"/>
<text transform="matrix(1 0 0 1 40.4146 -115.3337)" font-family="'SourceSansPro-It'" font-size="27.7132">&lt;/header&gt;</text>
<rect x="40.4" y="139.4" fill="none" width="529" height="28.3"/>
<text transform="matrix(1 0 0 1 40.4146 159.1292)" font-family="'SourceSansPro-SemiboldIt'" font-size="27.7132">&lt;footer&gt; </text>
<text transform="matrix(1 0 0 1 143.8774 159.1292)" font-family="'SourceSansPro-Regular'" font-size="23.0943">© Copyright Name Year</text>
<text transform="matrix(1 0 0 1 369.3936 159.1292)" font-family="'SourceSansPro-Regular'" font-size="27.7132"> </text>
<text transform="matrix(1 0 0 1 374.9365 159.1292)" font-family="'SourceSansPro-It'" font-size="27.7132">&lt;/footer&gt;</text>
</svg>
